<svg xmlns="http://www.w3.org/2000/svg" viewBox="0 0 800 420" font-family="Segoe UI, sans-serif">
<rect width="800" height="420" fill="#0d1117" rx="8"/>
<text x="64" y="30" fill="#e6edf3" font-size="17" font-weight="700">★ Star History — timoncool/dungeon-ultimate</text>
<text x="776" y="30" fill="#e6edf3" font-size="14" text-anchor="end">18 stars · updated 2026-10-07</text>
<line x1="64" y1="364.0" x2="776" y2="364.0" stroke="#30363d" stroke-width="1"/><text x="54" y="368.0" fill="#e6edf3" font-size="13" text-anchor="end">0</text><line x1="64" y1="293.8" x2="776" y2="293.8" stroke="#30363d" stroke-width="1"/><text x="54" y="297.8" fill="#e6edf3" font-size="13" text-anchor="end">4</text><line x1="64" y1="206.0" x2="776" y2="206.0" stroke="#30363d" stroke-width="1"/><text x="54" y="210.0" fill="#e6edf3" font-size="13" text-anchor="end">9</text><line x1="64" y1="118.2" x2="776" y2="118.2" stroke="#30363d" stroke-width="1"/><text x="54" y="122.2" fill="#e6edf3" font-size="13" text-anchor="end">14</text><line x1="64" y1="48.0" x2="776" y2="48.0" stroke="#30363d" stroke-width="1"/><text x="54" y="52.0" fill="#e6edf3" font-size="13" text-anchor="end">18</text>
<path d="M64.0,364.0 L64.0,346.4 L73.2,328.9 L81.7,311.3 L87.4,293.8 L162.8,276.2 L198.2,258.7 L379.9,241.1 L400.1,223.6 L435.8,206.0 L444.4,188.4 L451.0,170.9 L476.5,153.3 L492.0,135.8 L681.0,118.2 L697.1,100.7 L708.6,83.1 L726.2,65.6 L758.6,48.0 L776.0,48.0" fill="none" stroke="#4f8ff7" stroke-width="2.5" stroke-linejoin="round"/>
<circle cx="776.0" cy="48.0" r="4" fill="#4f8ff7"/>
<text x="64.0" y="388" fill="#e6edf3" font-size="13" text-anchor="middle">Jun 21, 2026</text><text x="301.3" y="388" fill="#e6edf3" font-size="13" text-anchor="middle">Jul 27, 2026</text><text x="538.7" y="388" fill="#e6edf3" font-size="13" text-anchor="middle">Sep 01, 2026</text><text x="776.0" y="388" fill="#e6edf3" font-size="13" text-anchor="middle">Oct 07, 2026</text>
</svg>