<svg xmlns="http://www.w3.org/2000/svg" viewBox="0 0 800 420" font-family="Segoe UI, sans-serif">
<rect width="800" height="420" fill="#ffffff" rx="8"/>
<text x="64" y="30" fill="#1f2328" font-size="17" font-weight="700">★ Star History — timoncool/dungeon-ultimate</text>
<text x="776" y="30" fill="#1f2328" font-size="14" text-anchor="end">15 stars · updated 2026-09-25</text>
<line x1="64" y1="364.0" x2="776" y2="364.0" stroke="#d1d9e0" stroke-width="1"/><text x="54" y="368.0" fill="#1f2328" font-size="13" text-anchor="end">0</text><line x1="64" y1="279.7" x2="776" y2="279.7" stroke="#d1d9e0" stroke-width="1"/><text x="54" y="283.7" fill="#1f2328" font-size="13" text-anchor="end">4</text><line x1="64" y1="195.5" x2="776" y2="195.5" stroke="#d1d9e0" stroke-width="1"/><text x="54" y="199.5" fill="#1f2328" font-size="13" text-anchor="end">8</text><line x1="64" y1="132.3" x2="776" y2="132.3" stroke="#d1d9e0" stroke-width="1"/><text x="54" y="136.3" fill="#1f2328" font-size="13" text-anchor="end">11</text><line x1="64" y1="48.0" x2="776" y2="48.0" stroke="#d1d9e0" stroke-width="1"/><text x="54" y="52.0" fill="#1f2328" font-size="13" text-anchor="end">15</text>
<path d="M64.0,364.0 L64.0,342.9 L74.4,321.9 L83.9,300.8 L90.3,279.7 L175.1,258.7 L215.0,237.6 L419.2,216.5 L442.0,195.5 L482.1,174.4 L491.8,153.3 L499.2,132.3 L527.9,111.2 L545.3,90.1 L757.9,69.1 L776.0,48.0 L776.0,48.0" fill="none" stroke="#0969da" stroke-width="2.5" stroke-linejoin="round"/>
<circle cx="776.0" cy="48.0" r="4" fill="#0969da"/>
<text x="64.0" y="388" fill="#1f2328" font-size="13" text-anchor="middle">Jun 21, 2026</text><text x="301.3" y="388" fill="#1f2328" font-size="13" text-anchor="middle">Jul 23, 2026</text><text x="538.7" y="388" fill="#1f2328" font-size="13" text-anchor="middle">Aug 24, 2026</text><text x="776.0" y="388" fill="#1f2328" font-size="13" text-anchor="middle">Sep 25, 2026</text>
</svg>